<?xml version="1.0" encoding="utf-8"?>
<!-- Generator: Adobe Illustrator 19.0.0, SVG Export Plug-In . SVG Version: 6.00 Build 0)  -->
<svg version="1.1" id="Layer_1" xmlns="http://www.w3.org/2000/svg" xmlns:xlink="http://www.w3.org/1999/xlink" x="0px"
    y="0px" viewBox="0 0 314.5 324" style="enable-background:new 0 0 314.5 324;" xml:space="preserve">
    <style type="text/css">
        .st0 {
            fill: #0B0B0B;
        }

        .st1 {
            fill: #0B0B0B;
            stroke-miterlimit: 10;
        }
    </style>
    <g id="XMLID_1_">
        <polygon id="XMLID_2_" class="st0" points="144.3,4.9 144.3,43.9 102.1,19.3 102.2,47.9 156.5,79.4 210.8,48.2 210.3,19.1 
		168.2,43.9 168.4,4.8 	" />
        <polygon id="XMLID_3_" class="st1"
            points="210.8,66.7 210.8,96.3 156.5,127.8 102.3,95.7 102.3,66.8 156.4,98.3 	" />
        <polygon id="XMLID_4_" class="st1" points="252.2,277.7 252,249.2 214.7,227.3 190.5,242.2 	" />
        <polygon id="XMLID_5_" class="st1"
            points="285.2,248.8 297.7,227.3 264,208.8 305.3,184.2 280.7,169.8 226.7,201.7 227.2,216 	" />
        <polygon id="XMLID_6_" class="st1" points="61,277.8 122.8,242 98.7,227.8 60.8,249.5 	" />
        <polygon id="XMLID_7_" class="st0"
            points="27.8,249 85.8,215.3 85.7,201 31.8,170.2 7.3,184.7 48.5,208 15.3,228.5 	" />
        <polygon id="XMLID_8_" class="st0" points="144.3,316.2 168.8,316.2 168.3,278.2 210.3,301.7 210.5,273.2 168.7,249.8 168.3,234.7 
		210.7,210.2 210.5,191.2 264.2,160.5 239.5,146.2 210.7,163.3 210.2,143.3 239.3,126.7 281,150.8 305.7,136.3 264.2,112.7 
		297.5,93.3 284.5,71.7 251.8,91.5 252,43 227.3,57.2 227.3,105.7 184.8,129.7 185.2,196.7 156.8,213.5 127.2,197.2 127.2,129 
		85.3,106.2 85.2,57.3 60.5,42.8 61.2,91.5 27.7,72.2 15.5,93.7 48.3,112.7 7.7,136.3 31.8,151.2 73.5,126.5 102,143.5 102,163 
		73.2,146.3 49.2,160.5 102.2,191.5 102.7,210.3 144,234.5 144.2,249.3 102.2,273.3 102.5,301.8 143.7,277.8 	" />
    </g>
</svg>